<?xml version="1.0" encoding="UTF-8"?>
<!DOCTYPE svg PUBLIC "-//W3C//DTD SVG 1.1//EN" "http://www.w3.org/Graphics/SVG/1.1/DTD/svg11.dtd">
<svg xmlns="http://www.w3.org/2000/svg" version="1.1" width="267px" height="267px" style="shape-rendering:geometricPrecision; text-rendering:geometricPrecision; image-rendering:optimizeQuality; fill-rule:evenodd; clip-rule:evenodd" xmlns:xlink="http://www.w3.org/1999/xlink">
<g><path style="opacity:0.797" fill="#a3f3ac" d="M 131.5,-0.5 C 132.5,-0.5 133.5,-0.5 134.5,-0.5C 145.833,15.1667 157.167,30.8333 168.5,46.5C 160.863,47.8319 153.196,49.1652 145.5,50.5C 142.542,64.7021 140.376,79.0354 139,93.5C 138.461,96.5285 137.794,99.5285 137,102.5C 136.617,103.056 136.117,103.389 135.5,103.5C 134.542,103.047 133.708,102.381 133,101.5C 132.292,102.381 131.458,103.047 130.5,103.5C 129.034,102.653 128.2,101.32 128,99.5C 125.318,83.226 123.151,66.8926 121.5,50.5C 113.689,48.7668 105.689,47.7668 97.5,47.5C 97.5,47.1667 97.5,46.8333 97.5,46.5C 108.858,30.8151 120.191,15.1484 131.5,-0.5 Z"/></g>
<g><path style="opacity:0.793" fill="#8cd492" d="M 97.5,46.5 C 97.5,46.8333 97.5,47.1667 97.5,47.5C 92.2985,53.2095 87.6319,59.3762 83.5,66C 94.9635,82.6209 106.964,98.7876 119.5,114.5C 118.5,116.167 117.167,117.5 115.5,118.5C 114.078,118.291 112.745,117.791 111.5,117C 96.7606,105.218 81.5939,94.051 66,83.5C 59.353,87.9831 52.853,92.6498 46.5,97.5C 43.588,77.8709 40.9213,58.2042 38.5,38.5C 58.1927,40.9799 77.8594,43.6466 97.5,46.5 Z"/></g>
<g><path style="opacity:0.799" fill="#a295ad" d="M 219.5,97.5 C 219.167,97.5 218.833,97.5 218.5,97.5C 212.79,92.2985 206.624,87.6319 200,83.5C 184.282,93.8803 169.115,105.047 154.5,117C 153.255,117.791 151.922,118.291 150.5,118.5C 148.833,117.5 147.5,116.167 146.5,114.5C 159.036,98.7876 171.036,82.6209 182.5,66C 178.017,59.353 173.35,52.853 168.5,46.5C 188.455,43.3868 208.455,40.8868 228.5,39C 225.363,58.4548 222.363,77.9548 219.5,97.5 Z"/></g>
<g><path style="opacity:0.961" fill="#9deda7" d="M 97.5,47.5 C 105.689,47.7668 113.689,48.7668 121.5,50.5C 123.151,66.8926 125.318,83.226 128,99.5C 128.2,101.32 129.034,102.653 130.5,103.5C 127.167,107.5 123.5,111.167 119.5,114.5C 106.964,98.7876 94.9635,82.6209 83.5,66C 87.6319,59.3762 92.2985,53.2095 97.5,47.5 Z"/></g>
<g><path style="opacity:0.961" fill="#a1e3ac" d="M 168.5,46.5 C 173.35,52.853 178.017,59.353 182.5,66C 171.036,82.6209 159.036,98.7876 146.5,114.5C 142.5,111.167 138.833,107.5 135.5,103.5C 136.117,103.389 136.617,103.056 137,102.5C 137.794,99.5285 138.461,96.5285 139,93.5C 140.376,79.0354 142.542,64.7021 145.5,50.5C 153.196,49.1652 160.863,47.8319 168.5,46.5 Z"/></g>
<g><path style="opacity:0.959" fill="#7fad86" d="M 115.5,118.5 C 112.167,122.5 108.5,126.167 104.5,129.5C 86.5073,126.833 68.5073,124 50.5,121C 49.2131,113.158 47.8797,105.325 46.5,97.5C 52.853,92.6498 59.353,87.9831 66,83.5C 81.5939,94.051 96.7606,105.218 111.5,117C 112.745,117.791 114.078,118.291 115.5,118.5 Z"/></g>
<g><path style="opacity:0.961" fill="#887797" d="M 218.5,97.5 C 218.417,105.487 217.417,113.32 215.5,121C 197.259,124.128 178.926,126.628 160.5,128.5C 156.833,125.5 153.5,122.167 150.5,118.5C 151.922,118.291 153.255,117.791 154.5,117C 169.115,105.047 184.282,93.8803 200,83.5C 206.624,87.6319 212.79,92.2985 218.5,97.5 Z"/></g>
<g><path style="opacity:0.791" fill="#7ea685" d="M 46.5,97.5 C 47.8797,105.325 49.2131,113.158 50.5,121C 68.5073,124 86.5073,126.833 104.5,129.5C 103.71,130.794 102.71,131.961 101.5,133C 102.381,133.708 103.047,134.542 103.5,135.5C 103.03,136.693 102.03,137.36 100.5,137.5C 83.7365,139.704 67.0698,142.371 50.5,145.5C 49.1634,153.196 47.83,160.863 46.5,168.5C 30.8516,157.191 15.1849,145.858 -0.5,134.5C -0.5,133.5 -0.5,132.5 -0.5,131.5C 15.1484,120.191 30.8151,108.858 46.5,97.5 Z"/></g>
<g><path style="opacity:0.797" fill="#837193" d="M 218.5,97.5 C 218.833,97.5 219.167,97.5 219.5,97.5C 235.148,108.809 250.815,120.142 266.5,131.5C 266.5,132.5 266.5,133.5 266.5,134.5C 250.852,145.809 235.185,157.142 219.5,168.5C 217.384,160.681 216.384,152.681 216.5,144.5C 199.483,142.553 182.483,140.386 165.5,138C 164.429,137.148 163.429,136.315 162.5,135.5C 162.953,134.542 163.619,133.708 164.5,133C 162.959,131.629 161.625,130.129 160.5,128.5C 178.926,126.628 197.259,124.128 215.5,121C 217.417,113.32 218.417,105.487 218.5,97.5 Z"/></g>
<g><path style="opacity:0.879" fill="#3c3647" d="M 135.5,103.5 C 138.833,107.5 142.5,111.167 146.5,114.5C 147.5,116.167 148.833,117.5 150.5,118.5C 153.5,122.167 156.833,125.5 160.5,128.5C 161.625,130.129 162.959,131.629 164.5,133C 163.619,133.708 162.953,134.542 162.5,135.5C 158.5,138.833 154.833,142.5 151.5,146.5C 149.833,147.5 148.5,148.833 147.5,150.5C 143.702,153.796 140.036,157.296 136.5,161C 139.347,178.26 142.014,195.594 144.5,213C 144.755,214.326 145.422,215.326 146.5,216C 153.917,216.94 161.25,218.106 168.5,219.5C 157.191,235.148 145.858,250.815 134.5,266.5C 133.5,266.5 132.5,266.5 131.5,266.5C 120.191,250.852 108.858,235.185 97.5,219.5C 105.344,217.571 113.344,216.571 121.5,216.5C 124.468,197.563 126.635,178.563 128,159.5C 124.964,156.296 121.797,153.296 118.5,150.5C 117.5,148.833 116.167,147.5 114.5,146.5C 111.167,142.5 107.5,138.833 103.5,135.5C 103.047,134.542 102.381,133.708 101.5,133C 102.71,131.961 103.71,130.794 104.5,129.5C 108.5,126.167 112.167,122.5 115.5,118.5C 117.167,117.5 118.5,116.167 119.5,114.5C 123.5,111.167 127.167,107.5 130.5,103.5C 131.458,103.047 132.292,102.381 133,101.5C 133.708,102.381 134.542,103.047 135.5,103.5 Z"/></g>
<g><path style="opacity:0.959" fill="#789c7f" d="M 103.5,135.5 C 107.5,138.833 111.167,142.5 114.5,146.5C 99.0175,158.47 83.3508,170.303 67.5,182C 66.5,182.667 65.5,182.667 64.5,182C 58.8776,177.198 52.8776,173.031 46.5,169.5C 46.5,169.167 46.5,168.833 46.5,168.5C 47.83,160.863 49.1634,153.196 50.5,145.5C 67.0698,142.371 83.7365,139.704 100.5,137.5C 102.03,137.36 103.03,136.693 103.5,135.5 Z"/></g>
<g><path style="opacity:0.96" fill="#7d6c8e" d="M 162.5,135.5 C 163.429,136.315 164.429,137.148 165.5,138C 182.483,140.386 199.483,142.553 216.5,144.5C 216.384,152.681 217.384,160.681 219.5,168.5C 213.147,173.35 206.647,178.017 200,182.5C 183.379,171.036 167.212,159.036 151.5,146.5C 154.833,142.5 158.5,138.833 162.5,135.5 Z"/></g>
<g><path style="opacity:0.794" fill="#5c6e6c" d="M 114.5,146.5 C 116.167,147.5 117.5,148.833 118.5,150.5C 118.649,151.552 118.483,152.552 118,153.5C 106.129,168.75 94.629,184.25 83.5,200C 87.9831,206.647 92.6498,213.147 97.5,219.5C 77.8871,222.54 58.2204,225.207 38.5,227.5C 40.887,208.124 43.5537,188.791 46.5,169.5C 52.8776,173.031 58.8776,177.198 64.5,182C 65.5,182.667 66.5,182.667 67.5,182C 83.3508,170.303 99.0175,158.47 114.5,146.5 Z"/></g>
<g><path style="opacity:0.791" fill="#665d73" d="M 151.5,146.5 C 167.212,159.036 183.379,171.036 200,182.5C 206.647,178.017 213.147,173.35 219.5,168.5C 222.539,188.104 225.205,207.77 227.5,227.5C 208.09,225.299 188.757,222.632 169.5,219.5C 173.031,213.122 177.198,207.122 182,201.5C 182.667,200.167 182.667,198.833 182,197.5C 169.504,182.485 158.004,166.818 147.5,150.5C 148.5,148.833 149.833,147.5 151.5,146.5 Z"/></g>
<g><path style="opacity:0.96" fill="#433c4f" d="M 147.5,150.5 C 158.004,166.818 169.504,182.485 182,197.5C 182.667,198.833 182.667,200.167 182,201.5C 177.198,207.122 173.031,213.122 169.5,219.5C 169.167,219.5 168.833,219.5 168.5,219.5C 161.25,218.106 153.917,216.94 146.5,216C 145.422,215.326 144.755,214.326 144.5,213C 142.014,195.594 139.347,178.26 136.5,161C 140.036,157.296 143.702,153.796 147.5,150.5 Z"/></g>
<g><path style="opacity:0.961" fill="#423f4d" d="M 118.5,150.5 C 121.797,153.296 124.964,156.296 128,159.5C 126.635,178.563 124.468,197.563 121.5,216.5C 113.344,216.571 105.344,217.571 97.5,219.5C 92.6498,213.147 87.9831,206.647 83.5,200C 94.629,184.25 106.129,168.75 118,153.5C 118.483,152.552 118.649,151.552 118.5,150.5 Z"/></g>
</svg>
